<svg width="25" height="20" viewBox="0 0 25 20" fill="none" xmlns="http://www.w3.org/2000/svg">
<path d="M7.82881 14.3687C7.82881 14.1802 7.67871 14.0278 7.49295 14.0278H2.28801C2.10225 14.0278 1.95215 14.1802 1.95215 14.3687C1.95215 14.5573 2.10225 14.7096 2.28801 14.7096H7.49668C7.67843 14.7096 7.82872 14.5573 7.82872 14.3687H7.82881Z" fill="#817AF3"/>
<path d="M2.28801 15.4634C2.10225 15.4634 1.95215 15.6157 1.95215 15.8043C1.95215 15.9928 2.10225 16.1452 2.28801 16.1452H5.11754C5.3033 16.1452 5.4534 15.9928 5.4534 15.8043C5.4534 15.6157 5.3033 15.4634 5.11754 15.4634H2.28801Z" fill="#817AF3"/>
<path d="M19.61 8.18311C16.6382 8.18311 14.2197 10.638 14.2197 13.6543C14.2197 16.6708 16.6383 19.1256 19.61 19.1256C22.5819 19.1256 25.0004 16.6707 25.0004 13.6543C25.0004 10.638 22.5818 8.18311 19.61 8.18311ZM19.61 18.4439C17.0096 18.4439 14.8914 16.2938 14.8914 13.6543C14.8914 11.0148 17.0097 8.86482 19.61 8.86482C22.2105 8.86482 24.3287 11.0149 24.3287 13.6543C24.3289 16.2937 22.2146 18.4439 19.61 18.4439Z" fill="#817AF3"/>
<path d="M22.8033 11.7328C22.8033 11.3799 22.6689 11.0469 22.424 10.7981C21.922 10.2886 21.1 10.2886 20.5902 10.7981L19.6141 11.7889L18.634 10.7941C18.1321 10.2927 17.31 10.2927 16.8042 10.7981C16.5592 11.0469 16.4209 11.3799 16.4209 11.7328C16.4209 12.0857 16.5554 12.4187 16.8042 12.6674L17.7763 13.6582L16.8042 14.6449C16.5592 14.8936 16.4209 15.2266 16.4209 15.5795C16.4209 15.9324 16.5554 16.2615 16.8042 16.5142C17.2706 16.9875 18.1755 16.9875 18.638 16.5142L19.6141 15.5234L20.5902 16.5142C20.8313 16.7589 21.1672 16.8992 21.507 16.8992C21.8469 16.8992 22.1828 16.7589 22.4239 16.5142C22.6689 16.2654 22.8032 15.9324 22.8032 15.5795C22.8032 15.2266 22.6688 14.8936 22.4239 14.6449L21.4518 13.6582L22.4239 12.6674C22.6651 12.4148 22.8034 12.0859 22.8034 11.7328L22.8033 11.7328ZM21.9459 12.1821L20.7365 13.4135C20.6061 13.5459 20.6061 13.7625 20.7365 13.8949L21.9459 15.1225C22.0645 15.2429 22.1276 15.4032 22.1276 15.5718C22.1276 15.7402 22.0643 15.9007 21.9459 16.0211C21.7126 16.2578 21.2938 16.2578 21.0605 16.0211L19.8474 14.7897C19.7802 14.7215 19.6973 14.6894 19.6103 14.6894C19.5233 14.6894 19.4364 14.7215 19.3732 14.7897L18.16 16.0211C17.9426 16.2418 17.4921 16.2418 17.2787 16.0211C17.1601 15.9007 17.093 15.7404 17.093 15.5718C17.093 15.4033 17.1601 15.2429 17.2787 15.1225L18.4919 13.8949C18.5552 13.8307 18.5907 13.7426 18.5907 13.6543C18.5907 13.562 18.5552 13.4778 18.4919 13.4137L17.2787 12.1823C17.1601 12.0619 17.093 11.9016 17.093 11.733C17.093 11.5646 17.1601 11.4041 17.2747 11.2837C17.5198 11.039 17.915 11.039 18.156 11.2796L19.3732 12.511C19.5037 12.6434 19.7171 12.6434 19.8476 12.511L21.0569 11.2835C21.302 11.0388 21.7012 11.0347 21.9423 11.2835C22.0609 11.4039 22.124 11.5642 22.124 11.7328C22.1276 11.9012 22.0643 12.0617 21.9459 12.1821L21.9459 12.1821Z" fill="#817AF3"/>
<path d="M15.3852 18.1833H2.61246C1.54157 18.1833 0.672074 17.3008 0.672074 16.2138V2.65558C0.672074 1.56861 1.54157 0.686066 2.61246 0.686066H6.73431V4.90601C6.73431 5.17877 6.87258 5.41938 7.10583 5.55586C7.22045 5.62401 7.3469 5.65614 7.47335 5.65614C7.59979 5.65614 7.73025 5.62013 7.84487 5.5518L9.33477 4.66538C9.3546 4.65337 9.38225 4.65337 9.4019 4.66538L10.8918 5.54792C11.121 5.6844 11.4016 5.68828 11.6308 5.55199C11.8641 5.41552 12.0023 5.17489 12.0023 4.90213L12.0022 0.682002H16.124C17.1949 0.682002 18.0684 1.56455 18.0684 2.65152V7.27661C18.0684 7.46516 18.2185 7.61751 18.4043 7.61751C18.59 7.61751 18.7401 7.46516 18.7401 7.27661L18.7403 2.65152C18.7403 1.18743 17.5666 0 16.1242 0L2.6123 0.000184671C1.16987 0.000184671 0 1.19149 0 2.6517V16.21C0 17.674 1.17369 18.8615 2.6123 18.8615L15.385 18.8613C15.5708 18.8613 15.7209 18.7089 15.7209 18.5204C15.7211 18.3357 15.5708 18.1834 15.385 18.1834L15.3852 18.1833ZM11.3306 4.90213C11.3306 4.92614 11.3188 4.94627 11.299 4.95827C11.2753 4.97027 11.2555 4.97027 11.2318 4.95827L9.74194 4.07572C9.62732 4.00758 9.49687 3.97139 9.37042 3.97139C9.23997 3.97139 9.11352 4.0074 8.9989 4.07572L7.509 4.96215C7.48917 4.97415 7.46552 4.97415 7.44187 4.96215C7.41821 4.95014 7.41021 4.93001 7.41021 4.90601V0.682189H11.3345V4.90213H11.3306Z" fill="#817AF3"/>
<path d="M10.7775 13.4377H13.2357C13.4214 13.4377 13.5715 13.2853 13.5715 13.0968C13.5715 12.9082 13.4214 12.7559 13.2357 12.7559H10.7775C10.3032 12.7559 9.91602 13.149 9.91602 13.6343V15.6401C9.91602 16.1215 10.3034 16.5145 10.7775 16.5145H13.7098C13.8956 16.5145 14.0457 16.3621 14.0457 16.1736C14.0457 15.985 13.8956 15.8327 13.7098 15.8327H10.7775C10.6747 15.8327 10.5917 15.7485 10.5917 15.6441V13.6384C10.5917 13.5259 10.6747 13.4377 10.7775 13.4377Z" fill="#817AF3"/>
</svg>
