<svg width="25" height="26" viewBox="0 0 25 26" fill="none" xmlns="http://www.w3.org/2000/svg">
<path d="M15.5993 11.0888H9.46681C9.22844 11.0888 9.03516 10.9118 9.03516 10.6933C9.03516 10.4749 9.22836 10.2979 9.46681 10.2979H15.5991C15.8375 10.2979 16.0308 10.4749 16.0308 10.6933C16.0308 10.9118 15.8375 11.0888 15.5993 11.0888H15.5993Z" fill="#58D365" fill-opacity="0.7"/>
<path d="M15.5993 13.9618H9.46681C9.22844 13.9618 9.03516 13.7848 9.03516 13.5664C9.03516 13.348 9.22836 13.1709 9.46681 13.1709H15.5991C15.8375 13.1709 16.0308 13.3479 16.0308 13.5664C16.0308 13.7848 15.8375 13.9618 15.5993 13.9618H15.5993Z" fill="#58D365" fill-opacity="0.7"/>
<path d="M9.53028 16.6496C9.29191 16.6496 9.09863 16.4726 9.09863 16.2541C9.09863 16.0357 9.29183 15.8586 9.53028 15.8586C11.8399 15.8586 13.7911 14.7554 13.7911 13.4496C13.7911 12.1437 11.8398 11.0404 9.53028 11.0404C9.29191 11.0404 9.09863 10.8634 9.09863 10.645C9.09863 10.4266 9.29183 10.2495 9.53028 10.2495C12.4037 10.2495 14.6544 11.6552 14.6544 13.4495C14.6544 15.2438 12.4037 16.6495 9.53028 16.6495V16.6496Z" fill="#58D365" fill-opacity="0.7"/>
<path d="M14.1421 21.3009C14.0271 21.3009 13.9125 21.2591 13.8274 21.1764L9.26949 16.7336C9.10618 16.5743 9.11467 16.3241 9.28836 16.1746C9.46205 16.0251 9.73509 16.0329 9.89849 16.1919L14.4564 20.6347C14.6197 20.7939 14.6112 21.0442 14.4375 21.1937C14.3541 21.2654 14.2479 21.3009 14.1419 21.3009L14.1421 21.3009Z" fill="#58D365" fill-opacity="0.7"/>
<path d="M0.691729 13.2112H2.77553V24.3248C2.77553 24.7138 3.08116 25.0194 3.47012 25.0194H21.5297C21.9187 25.0194 22.2243 24.7138 22.2243 24.3248V13.2112H24.3081C24.9193 13.2112 25.225 12.461 24.8081 12.0166L12.9999 0.208439C12.722 -0.0694797 12.2776 -0.0694797 12.0274 0.208439L0.191916 12.0166C-0.224957 12.461 0.0806711 13.2112 0.691928 13.2112H0.691729ZM12.4999 1.68089L22.641 11.822H21.5298C21.1408 11.822 20.8352 12.1277 20.8352 12.5166V23.6302H4.16482V12.5166C4.16482 12.1277 3.85919 11.822 3.47022 11.822H2.35896L12.4999 1.68089Z" fill="#58D365" fill-opacity="0.7"/>
</svg>
