<svg width="26" height="26" viewBox="0 0 26 26" fill="none" xmlns="http://www.w3.org/2000/svg">
<path fill-rule="evenodd" clip-rule="evenodd" d="M0.235805 13.9742C0.174543 13.7981 0.267631 13.6055 0.443689 13.5431C8.73675 10.6563 15.9975 6.41002 22.0427 0.926683L20.3237 1.02014C20.1384 1.02971 19.978 0.887499 19.9679 0.700402C19.9578 0.51478 20.1005 0.35473 20.2869 0.34516L22.952 0.200195H22.9877C23.0758 0.204794 23.1597 0.244163 23.2195 0.309839C23.288 0.384527 23.3192 0.485896 23.3043 0.586525L22.9196 3.22793C22.8952 3.39607 22.7508 3.51657 22.5859 3.51657C22.5697 3.51657 22.5536 3.51529 22.5368 3.51253C22.3521 3.4853 22.2244 3.31476 22.2511 3.13043L22.4995 1.42415C16.3865 6.97013 9.04708 11.2638 0.665477 14.1819C0.628684 14.1953 0.591339 14.2008 0.554176 14.2008C0.414731 14.2008 0.284295 14.114 0.235546 13.9744L0.235805 13.9742ZM24.5409 24.524V7.05911H21.9771V24.524H24.5409ZM24.8788 6.38282H21.6396C21.453 6.38282 21.3016 6.53441 21.3016 6.72021V24.8614C21.3016 25.0485 21.4527 25.1988 21.6396 25.1988H24.8788C25.0656 25.1988 25.2168 25.0483 25.2168 24.8614V6.72021C25.2168 6.53459 25.0654 6.38282 24.8788 6.38282ZM17.5126 24.524V10.7307H14.9488V24.524H17.5126ZM17.8506 10.0544H14.6111C14.4246 10.0544 14.2732 10.2063 14.2732 10.392V24.8616C14.2732 25.0487 14.4246 25.199 14.6111 25.199H17.8504C18.0369 25.199 18.1883 25.0485 18.1883 24.8616L18.1882 10.392C18.1885 10.2063 18.0371 10.0544 17.8506 10.0544H17.8506ZM10.4844 24.524V13.6986H7.92056V24.5236H10.4844V24.524ZM10.8223 13.0242H7.58302C7.39648 13.0242 7.24507 13.1747 7.24507 13.3616V24.8614C7.24507 25.0485 7.39647 25.1988 7.58302 25.1988H10.8223C11.0088 25.1988 11.1603 25.0483 11.1603 24.8614V13.3616C11.1603 13.1745 11.0088 13.0242 10.8223 13.0242ZM3.45608 24.524H0.892666V18.0729H3.45646V24.524H3.45608ZM3.79403 17.3975H0.554746C0.368021 17.3975 0.216797 17.548 0.216797 17.7351V24.8616C0.216797 25.0487 0.367833 25.199 0.554746 25.199H3.79403C3.98057 25.199 4.13198 25.0485 4.13198 24.8616V17.7351C4.13198 17.548 3.98057 17.3977 3.79403 17.3977V17.3975Z" fill="#DBA362" fill-opacity="0.8"/>
<path d="M3.89355 17.2979V17.3096C4.08718 17.3545 4.23242 17.5271 4.23242 17.7354V24.8613C4.23242 25.1038 4.03543 25.2988 3.79395 25.2988H0.554688C0.31282 25.2988 0.117188 25.1039 0.117188 24.8613V17.7354C0.117188 17.4928 0.312975 17.2979 0.554688 17.2979H3.89355ZM10.8223 12.9238C11.0636 12.9238 11.2596 13.1188 11.2598 13.3613V24.8613C11.2598 25.1038 11.0638 25.2988 10.8223 25.2988H7.58301C7.34156 25.2988 7.14551 25.104 7.14551 24.8613V13.3613C7.14567 13.119 7.34163 12.9238 7.58301 12.9238H10.8223ZM17.8506 9.9541C18.0922 9.95411 18.2883 10.1509 18.2881 10.3916V24.8613C18.2881 25.1037 18.092 25.2987 17.8506 25.2988H14.6113C14.3699 25.2988 14.1729 25.104 14.1729 24.8613V10.3916C14.1731 10.151 14.3696 9.9541 14.6113 9.9541H17.8506ZM24.8789 6.2832C25.1205 6.28323 25.3161 6.47908 25.3164 6.71973V24.8613C25.3164 25.1037 25.1206 25.2988 24.8789 25.2988H21.6396C21.3978 25.2988 21.2012 25.1039 21.2012 24.8613V6.71973C21.2014 6.47884 21.3981 6.2832 21.6396 6.2832H24.8789ZM22.0771 24.4238H24.4404V7.15918H22.0771V24.4238ZM15.0488 24.4238H17.4131V10.8311H15.0488V24.4238ZM8.02051 24.4238H10.3848V13.7988H8.02051V24.4238ZM0.992188 24.4238H3.35645V18.1729H0.992188V24.4238ZM22.9521 0.100586H22.9932C23.1073 0.10661 23.2164 0.156973 23.2939 0.242188H23.293C23.3817 0.339025 23.4226 0.471056 23.4033 0.601562L23.0186 3.24219C22.9868 3.46041 22.7995 3.61621 22.5859 3.61621C22.5643 3.61621 22.5426 3.61498 22.5205 3.61133V3.61035C22.2826 3.57428 22.1179 3.3548 22.1523 3.11621L22.3604 1.68164C16.2778 7.14781 8.99822 11.3867 0.698242 14.2764L0.697266 14.2754C0.648724 14.2928 0.600248 14.3008 0.553711 14.3008C0.373281 14.3006 0.204757 14.1877 0.141602 14.0068L0.118164 13.9404L0.125 13.9346C0.0904527 13.7281 0.206522 13.5215 0.410156 13.4492L0.411133 13.4482C8.59622 10.599 15.7714 6.42282 21.7637 1.04102L20.3291 1.12012C20.0894 1.1325 19.8814 0.948566 19.8682 0.706055C19.8551 0.465678 20.0395 0.257802 20.2812 0.245117L22.9463 0.100586L22.9521 0.0996094V0.100586Z" stroke="#DBA362" stroke-opacity="0.8" stroke-width="0.2"/>
</svg>
