<svg width="26" height="24" viewBox="0 0 26 24" fill="none" xmlns="http://www.w3.org/2000/svg">
<mask id="path-1-outside-1_424_141" maskUnits="userSpaceOnUse" x="-0.900391" y="-0.899902" width="27" height="25" fill="black">
<rect fill="white" x="-0.900391" y="-0.899902" width="27" height="25"/>
<path d="M15.881 12.3145H9.31774C9.12472 12.3145 8.9679 12.4714 8.9679 12.6644V23.5441C8.9679 23.7371 9.12471 23.8939 9.31774 23.8939H15.8804C16.0735 23.8939 16.2303 23.7371 16.2303 23.5441L16.2305 12.6644C16.2305 12.4714 16.0737 12.3145 15.8806 12.3145H15.881ZM9.66816 17.7307V16.6157H15.5316V17.7313H9.66816V17.7307ZM15.5311 18.4306V19.5462H9.66816V18.4306H15.5311ZM9.66816 15.916V14.8004H15.5316V15.916H9.66816ZM9.66816 20.246H15.5316V21.3616H9.66816V20.246ZM15.5311 13.0142V14.1007L9.66816 14.1005V13.014L15.5311 13.0142ZM9.66816 23.1936V22.0611H15.5316L15.5314 23.1936H9.66816ZM24.7498 6.87433H18.1871C17.9941 6.87433 17.8372 7.03115 17.8372 7.22417L17.837 23.5434C17.837 23.7365 17.9938 23.8933 18.1869 23.8933H24.7496C24.9426 23.8933 25.0994 23.7365 25.0994 23.5434L25.0996 7.22417C25.0996 7.03115 24.9434 6.87433 24.7498 6.87433ZM18.537 15.915V14.7994H24.4004V15.915H18.537ZM24.4004 16.6147V17.7303H18.537V16.6147H24.4004ZM18.537 14.1001V12.9845H24.4004V14.1001H18.537ZM18.537 12.2849V11.1692H24.4004V12.2849H18.537ZM18.537 18.43H24.4004V19.5456H18.537V18.43ZM24.4004 10.4692H18.537V9.35362H24.4004V10.4692ZM18.537 20.2456H24.4004V21.3612H18.537V20.2456ZM24.4004 7.57372V8.65372H18.537V7.57372H24.4004ZM18.537 23.1932V22.0607H24.4004V23.1932H18.537ZM7.01215 17.7536H0.449447C0.256429 17.7536 0.0996094 17.9104 0.0996094 18.1034V23.5436C0.0996094 23.7366 0.256424 23.8934 0.449447 23.8934H7.01215C7.20517 23.8934 7.36199 23.7366 7.36199 23.5436V18.104C7.36219 17.9107 7.20517 17.7539 7.01215 17.7539V17.7536ZM0.799347 20.2665H6.66277V21.3797H0.799347V20.2665ZM6.66277 18.4535V19.5667H0.799347V18.4535H6.66277ZM0.799347 23.1934V22.0802H6.66277V23.1934H0.799347ZM13.763 8.76832L21.7316 0.799772H18.0715C17.8785 0.799772 17.7217 0.642958 17.7217 0.449935C17.7217 0.256912 17.8785 0.100098 18.0715 0.100098H22.5765C22.7695 0.100098 22.9263 0.256912 22.9263 0.449935V4.95489C22.9263 5.14791 22.7695 5.30473 22.5765 5.30473C22.3835 5.30473 22.2267 5.14792 22.2267 4.95489V1.29485L14.0108 9.51072C13.8743 9.6472 13.6528 9.6472 13.5157 9.51072L10.9154 6.91037L2.87133 14.9549C2.80319 15.0231 2.71329 15.0577 2.624 15.0577C2.53471 15.0577 2.44502 15.0233 2.37668 14.9549C2.2402 14.8185 2.2402 14.597 2.37668 14.4605L10.6686 6.1686C10.805 6.03213 11.0265 6.03213 11.1636 6.1686L13.763 8.76832Z"/>
</mask>
<path d="M15.881 12.3145H9.31774C9.12472 12.3145 8.9679 12.4714 8.9679 12.6644V23.5441C8.9679 23.7371 9.12471 23.8939 9.31774 23.8939H15.8804C16.0735 23.8939 16.2303 23.7371 16.2303 23.5441L16.2305 12.6644C16.2305 12.4714 16.0737 12.3145 15.8806 12.3145H15.881ZM9.66816 17.7307V16.6157H15.5316V17.7313H9.66816V17.7307ZM15.5311 18.4306V19.5462H9.66816V18.4306H15.5311ZM9.66816 15.916V14.8004H15.5316V15.916H9.66816ZM9.66816 20.246H15.5316V21.3616H9.66816V20.246ZM15.5311 13.0142V14.1007L9.66816 14.1005V13.014L15.5311 13.0142ZM9.66816 23.1936V22.0611H15.5316L15.5314 23.1936H9.66816ZM24.7498 6.87433H18.1871C17.9941 6.87433 17.8372 7.03115 17.8372 7.22417L17.837 23.5434C17.837 23.7365 17.9938 23.8933 18.1869 23.8933H24.7496C24.9426 23.8933 25.0994 23.7365 25.0994 23.5434L25.0996 7.22417C25.0996 7.03115 24.9434 6.87433 24.7498 6.87433ZM18.537 15.915V14.7994H24.4004V15.915H18.537ZM24.4004 16.6147V17.7303H18.537V16.6147H24.4004ZM18.537 14.1001V12.9845H24.4004V14.1001H18.537ZM18.537 12.2849V11.1692H24.4004V12.2849H18.537ZM18.537 18.43H24.4004V19.5456H18.537V18.43ZM24.4004 10.4692H18.537V9.35362H24.4004V10.4692ZM18.537 20.2456H24.4004V21.3612H18.537V20.2456ZM24.4004 7.57372V8.65372H18.537V7.57372H24.4004ZM18.537 23.1932V22.0607H24.4004V23.1932H18.537ZM7.01215 17.7536H0.449447C0.256429 17.7536 0.0996094 17.9104 0.0996094 18.1034V23.5436C0.0996094 23.7366 0.256424 23.8934 0.449447 23.8934H7.01215C7.20517 23.8934 7.36199 23.7366 7.36199 23.5436V18.104C7.36219 17.9107 7.20517 17.7539 7.01215 17.7539V17.7536ZM0.799347 20.2665H6.66277V21.3797H0.799347V20.2665ZM6.66277 18.4535V19.5667H0.799347V18.4535H6.66277ZM0.799347 23.1934V22.0802H6.66277V23.1934H0.799347ZM13.763 8.76832L21.7316 0.799772H18.0715C17.8785 0.799772 17.7217 0.642958 17.7217 0.449935C17.7217 0.256912 17.8785 0.100098 18.0715 0.100098H22.5765C22.7695 0.100098 22.9263 0.256912 22.9263 0.449935V4.95489C22.9263 5.14791 22.7695 5.30473 22.5765 5.30473C22.3835 5.30473 22.2267 5.14792 22.2267 4.95489V1.29485L14.0108 9.51072C13.8743 9.6472 13.6528 9.6472 13.5157 9.51072L10.9154 6.91037L2.87133 14.9549C2.80319 15.0231 2.71329 15.0577 2.624 15.0577C2.53471 15.0577 2.44502 15.0233 2.37668 14.9549C2.2402 14.8185 2.2402 14.597 2.37668 14.4605L10.6686 6.1686C10.805 6.03213 11.0265 6.03213 11.1636 6.1686L13.763 8.76832Z" fill="#817AF3"/>
<path d="M15.881 12.3145H9.31774C9.12472 12.3145 8.9679 12.4714 8.9679 12.6644V23.5441C8.9679 23.7371 9.12471 23.8939 9.31774 23.8939H15.8804C16.0735 23.8939 16.2303 23.7371 16.2303 23.5441L16.2305 12.6644C16.2305 12.4714 16.0737 12.3145 15.8806 12.3145H15.881ZM9.66816 17.7307V16.6157H15.5316V17.7313H9.66816V17.7307ZM15.5311 18.4306V19.5462H9.66816V18.4306H15.5311ZM9.66816 15.916V14.8004H15.5316V15.916H9.66816ZM9.66816 20.246H15.5316V21.3616H9.66816V20.246ZM15.5311 13.0142V14.1007L9.66816 14.1005V13.014L15.5311 13.0142ZM9.66816 23.1936V22.0611H15.5316L15.5314 23.1936H9.66816ZM24.7498 6.87433H18.1871C17.9941 6.87433 17.8372 7.03115 17.8372 7.22417L17.837 23.5434C17.837 23.7365 17.9938 23.8933 18.1869 23.8933H24.7496C24.9426 23.8933 25.0994 23.7365 25.0994 23.5434L25.0996 7.22417C25.0996 7.03115 24.9434 6.87433 24.7498 6.87433ZM18.537 15.915V14.7994H24.4004V15.915H18.537ZM24.4004 16.6147V17.7303H18.537V16.6147H24.4004ZM18.537 14.1001V12.9845H24.4004V14.1001H18.537ZM18.537 12.2849V11.1692H24.4004V12.2849H18.537ZM18.537 18.43H24.4004V19.5456H18.537V18.43ZM24.4004 10.4692H18.537V9.35362H24.4004V10.4692ZM18.537 20.2456H24.4004V21.3612H18.537V20.2456ZM24.4004 7.57372V8.65372H18.537V7.57372H24.4004ZM18.537 23.1932V22.0607H24.4004V23.1932H18.537ZM7.01215 17.7536H0.449447C0.256429 17.7536 0.0996094 17.9104 0.0996094 18.1034V23.5436C0.0996094 23.7366 0.256424 23.8934 0.449447 23.8934H7.01215C7.20517 23.8934 7.36199 23.7366 7.36199 23.5436V18.104C7.36219 17.9107 7.20517 17.7539 7.01215 17.7539V17.7536ZM0.799347 20.2665H6.66277V21.3797H0.799347V20.2665ZM6.66277 18.4535V19.5667H0.799347V18.4535H6.66277ZM0.799347 23.1934V22.0802H6.66277V23.1934H0.799347ZM13.763 8.76832L21.7316 0.799772H18.0715C17.8785 0.799772 17.7217 0.642958 17.7217 0.449935C17.7217 0.256912 17.8785 0.100098 18.0715 0.100098H22.5765C22.7695 0.100098 22.9263 0.256912 22.9263 0.449935V4.95489C22.9263 5.14791 22.7695 5.30473 22.5765 5.30473C22.3835 5.30473 22.2267 5.14792 22.2267 4.95489V1.29485L14.0108 9.51072C13.8743 9.6472 13.6528 9.6472 13.5157 9.51072L10.9154 6.91037L2.87133 14.9549C2.80319 15.0231 2.71329 15.0577 2.624 15.0577C2.53471 15.0577 2.44502 15.0233 2.37668 14.9549C2.2402 14.8185 2.2402 14.597 2.37668 14.4605L10.6686 6.1686C10.805 6.03213 11.0265 6.03213 11.1636 6.1686L13.763 8.76832Z" stroke="#817AF3" stroke-width="0.2" mask="url(#path-1-outside-1_424_141)"/>
</svg>
