<svg width="25" height="23" viewBox="0 0 25 23" fill="none" xmlns="http://www.w3.org/2000/svg">
<path d="M16.119 4.60477C16.7296 4.60477 17.3153 4.36225 17.7471 3.93048C18.1789 3.49868 18.4214 2.91294 18.4214 2.30238C18.4214 1.69165 18.1789 1.10611 17.7471 0.674287C17.3153 0.242485 16.7296 0 16.119 0C15.5083 0 14.9228 0.242514 14.4909 0.674287C14.0591 1.10609 13.8164 1.69159 13.8164 2.30238C13.8164 2.91294 14.0591 3.49866 14.4909 3.93048C14.9227 4.36228 15.5082 4.60477 16.119 4.60477ZM16.119 1.31556C16.3806 1.31556 16.6316 1.4195 16.8167 1.60466C17.0017 1.78958 17.1056 2.04059 17.1056 2.30238C17.1056 2.56393 17.0017 2.81494 16.8167 3.0001C16.6316 3.18502 16.3806 3.28919 16.119 3.28919C15.8572 3.28919 15.6062 3.18503 15.4211 3.0001C15.2361 2.81495 15.1322 2.56394 15.1322 2.30238C15.1322 2.04059 15.2361 1.78958 15.4211 1.60466C15.6062 1.4195 15.8572 1.31556 16.119 1.31556Z" fill="#629FF4"/>
<path d="M19.7373 6.90736C19.7373 7.5181 19.9798 8.10364 20.4116 8.53546C20.8434 8.96726 21.4291 9.20975 22.0397 9.20975C22.6504 9.20975 23.236 8.96723 23.6678 8.53546C24.0996 8.10366 24.3423 7.51816 24.3423 6.90736C24.3423 6.29681 24.0996 5.71109 23.6678 5.27927C23.236 4.84746 22.6505 4.60498 22.0397 4.60498C21.4291 4.60498 20.8434 4.84749 20.4116 5.27927C19.9798 5.71107 19.7373 6.29681 19.7373 6.90736ZM23.0265 6.90736C23.0265 7.16915 22.9226 7.42016 22.7376 7.60509C22.5525 7.79024 22.3015 7.89418 22.0397 7.89418C21.7781 7.89418 21.5271 7.79024 21.342 7.60509C21.157 7.42016 21.0531 7.16915 21.0531 6.90736C21.0531 6.64581 21.157 6.3948 21.342 6.20964C21.5271 6.02472 21.7781 5.92055 22.0397 5.92055C22.3015 5.92055 22.5525 6.02471 22.7376 6.20964C22.9226 6.39479 23.0265 6.6458 23.0265 6.90736Z" fill="#629FF4"/>
<path d="M15.7284 8.91672C15.8686 9.02088 16.0448 9.0647 16.2176 9.03877C16.3903 9.01285 16.5457 8.91924 16.6494 8.77859L22.241 1.21342V1.21365C22.4571 0.92112 22.3954 0.508825 22.1028 0.292677C21.8103 0.0763178 21.398 0.138266 21.1819 0.4308L15.5903 7.99597V7.99574C15.4861 8.13615 15.4423 8.31213 15.4682 8.4849C15.4942 8.65766 15.5878 8.81322 15.7284 8.9167L15.7284 8.91672Z" fill="#629FF4"/>
<path d="M5.59354 5.59131C4.65952 5.59131 0.00195312 5.68675 0.00195312 7.56495C0.00195312 9.44314 4.65952 9.53859 5.59354 9.53859C6.52756 9.53859 11.1851 9.44314 11.1851 7.56495C11.1854 5.68675 6.52779 5.59131 5.59354 5.59131ZM5.59354 8.22273C3.39647 8.22273 1.9753 7.84439 1.4623 7.56495C1.97555 7.28527 3.39647 6.90693 5.59354 6.90693C7.79061 6.90693 9.21178 7.28527 9.72478 7.56471C9.21176 7.8444 7.79084 8.22273 5.59354 8.22273Z" fill="#629FF4"/>
<path d="M10.5276 9.04514C10.2018 9.04078 9.92188 9.27595 9.86978 9.59762C9.58023 9.87386 8.07717 10.3607 5.59376 10.3607C3.11059 10.3607 1.59743 9.86743 1.31797 9.59762C1.28883 9.23442 0.97083 8.96345 0.607385 8.99235C0.244187 9.02149 -0.0267855 9.33949 0.00211247 9.70293C0.00211247 11.5811 4.65968 11.6766 5.5937 11.6766C6.52772 11.6766 11.1853 11.5811 11.1853 9.70293H11.1855C11.1855 9.52833 11.1162 9.36107 10.9928 9.23763C10.8694 9.11442 10.7021 9.04514 10.5275 9.04514H10.5276Z" fill="#629FF4"/>
<path d="M10.5276 11.3479C10.2018 11.3437 9.92188 11.5787 9.86978 11.9004C9.58023 12.1766 8.07717 12.6634 5.59376 12.6634C3.11059 12.6634 1.59743 12.1702 1.31797 11.9004C1.28883 11.5372 0.97083 11.2662 0.607385 11.2951C0.244187 11.3242 -0.0267855 11.6422 0.00211247 12.0057C0.00211247 13.8839 4.65968 13.9793 5.5937 13.9793C6.52772 13.9793 11.1853 13.8839 11.1853 12.0057H11.1855C11.1855 11.8313 11.1162 11.6638 10.9928 11.5406C10.8694 11.4172 10.7021 11.3479 10.5275 11.3479H10.5276Z" fill="#629FF4"/>
<path d="M10.5276 13.6499C10.2018 13.6458 9.92188 13.8807 9.86978 14.2024C9.58023 14.4786 8.07717 14.9655 5.59376 14.9655C3.11059 14.9655 1.59743 14.4722 1.31797 14.2024C1.28883 13.8392 0.97083 13.5682 0.607385 13.5974C0.244187 13.6263 -0.0267855 13.9445 0.00211247 14.3077C0.00211247 16.1859 4.65968 16.2814 5.5937 16.2814C6.52772 16.2814 11.1853 16.1859 11.1853 14.3077H11.1855C11.1855 14.1333 11.1162 13.9659 10.9928 13.8426C10.8694 13.7192 10.7021 13.6499 10.5275 13.6499H10.5276Z" fill="#629FF4"/>
<path d="M10.5276 15.9527C10.2018 15.9485 9.92188 16.1835 9.86978 16.5054C9.58023 16.7816 8.07717 17.2685 5.59376 17.2685C3.11059 17.2685 1.59743 16.7749 1.31797 16.5054C1.28883 16.1419 0.97083 15.871 0.607385 15.9001C0.244187 15.9292 -0.0267855 16.2472 0.00211247 16.6104C0.00211247 18.4886 4.65968 18.5841 5.5937 18.5841C6.52772 18.5841 11.1853 18.4886 11.1853 16.6104H11.1855C11.1855 16.4361 11.1162 16.2688 10.9928 16.1454C10.8694 16.0219 10.7021 15.9527 10.5275 15.9527H10.5276Z" fill="#629FF4"/>
<path d="M10.5276 18.2549C10.2018 18.2508 9.92188 18.4859 9.86978 18.8076C9.58023 19.0839 8.07717 19.5707 5.59376 19.5707C3.11059 19.5707 1.59743 19.0772 1.31797 18.8076C1.28883 18.4442 0.97083 18.1732 0.607385 18.2023C0.244187 18.2315 -0.0267855 18.5495 0.00211247 18.9129C0.00211247 20.7911 4.65968 20.8866 5.5937 20.8866C6.52772 20.8866 11.1853 20.7911 11.1853 18.9129H11.1855C11.1855 18.7383 11.1162 18.5711 10.9928 18.4476C10.8694 18.3242 10.7021 18.2549 10.5275 18.2549L10.5276 18.2549Z" fill="#629FF4"/>
<path d="M19.408 15.7881C20.342 15.7881 24.9996 15.6927 24.9996 13.8145C24.9996 11.9363 20.342 11.8408 19.408 11.8408C18.474 11.8408 13.8164 11.9363 13.8164 13.8145C13.8162 15.6928 18.4737 15.7881 19.408 15.7881ZM19.408 13.1567C21.6051 13.1567 23.0262 13.535 23.5392 13.8145C23.026 14.0941 21.6051 14.4725 19.408 14.4725C17.2109 14.4725 15.7898 14.0941 15.2768 13.8147C15.7898 13.535 17.2107 13.1569 19.408 13.1569V13.1567Z" fill="#629FF4"/>
<path d="M24.3422 15.2944C24.0162 15.2903 23.7366 15.5253 23.6842 15.8469C23.3947 16.1232 21.8916 16.61 19.4082 16.61C16.925 16.61 15.4119 16.1167 15.1324 15.8469C15.1033 15.4837 14.7853 15.2128 14.4218 15.2419C14.0586 15.2708 13.7877 15.589 13.8166 15.9522C13.8166 17.8304 18.4741 17.9259 19.4082 17.9259C20.3422 17.9259 24.9997 17.8304 24.9997 15.9522H25C25 15.7779 24.9307 15.6104 24.8072 15.4872C24.6838 15.3637 24.5165 15.2944 24.3422 15.2944H24.3422Z" fill="#629FF4"/>
<path d="M24.3422 17.5972C24.0162 17.5931 23.7366 17.828 23.6842 18.1499C23.3947 18.4261 21.8916 18.913 19.4082 18.913C16.925 18.913 15.4119 18.4195 15.1324 18.1499C15.1033 17.7865 14.7853 17.5155 14.4218 17.5446C14.0586 17.5738 13.7877 17.8918 13.8166 18.255C13.8166 20.1332 18.4741 20.2286 19.4082 20.2286C20.3422 20.2286 24.9997 20.1332 24.9997 18.255H25C25 18.0806 24.9307 17.9133 24.8072 17.7899C24.6838 17.6665 24.5165 17.5972 24.3422 17.5972H24.3422Z" fill="#629FF4"/>
<path d="M24.3422 19.8994C24.0162 19.8953 23.7366 20.1305 23.6842 20.4521C23.3947 20.7284 21.8916 21.2152 19.4082 21.2152C16.925 21.2152 15.4119 20.7217 15.1324 20.4521C15.1033 20.0887 14.7853 19.8177 14.4218 19.8469C14.0586 19.876 13.7877 20.194 13.8166 20.5575C13.8166 22.4357 18.4741 22.5311 19.4082 22.5311C20.3422 22.5311 24.9997 22.4357 24.9997 20.5575H25C25 20.3829 24.9307 20.2156 24.8072 20.0922C24.6838 19.9687 24.5165 19.8994 24.3422 19.8994L24.3422 19.8994Z" fill="#629FF4"/>
</svg>
